# xmcd
#
# Track frame offsets:
#	150
#	29917
#	56256
#	80941
#	104196
#	132702
#	184683
#	246740
#
# Disc length: 3695 seconds
#
# Revision: 1
# Processed by: cddbd v1.5.2PL0 Copyright (c) Steve Scherf et al.
# Submitted via: audiograbber 1.83.01
#
DISCID=830e6d08
DTITLE=Grateful Dead - 80-06-20 West High Auditorium, Anchorage AK
DYEAR=1900
DGENRE=
TTITLE0=Lost Sailor
TTITLE1=Saint Of Circumstance
TTITLE2=Deal
TTITLE3=Alabama Getaway
TTITLE4=Greatest Story Ever Told
TTITLE5=Ship Of Fools
TTITLE6=Estimated Prophet
TTITLE7=The Other One
EXTD=
EXTT0=
EXTT1=
EXTT2=
EXTT3=
EXTT4=
EXTT5=
EXTT6=
EXTT7=
PLAYORDER=
